%TF.GenerationSoftware,KiCad,Pcbnew,6.0.5*%
%TF.CreationDate,2022-05-30T20:25:03+02:00*%
%TF.ProjectId,main,6d61696e-2e6b-4696-9361-645f70636258,v1.0.0*%
%TF.SameCoordinates,Original*%
%TF.FileFunction,Profile,NP*%
%FSLAX46Y46*%
G04 Gerber Fmt 4.6, Leading zero omitted, Abs format (unit mm)*
G04 Created by KiCad (PCBNEW 6.0.5) date 2022-05-30 20:25:03*
%MOMM*%
%LPD*%
G01*
G04 APERTURE LIST*
%TA.AperFunction,Profile*%
%ADD10C,0.150000*%
%TD*%
G04 APERTURE END LIST*
D10*
X18000000Y-10000000D02*
X10000000Y-10000000D01*
X8000000Y-8000000D02*
X8000000Y42000000D01*
X10000000Y44000000D02*
X24000000Y44000000D01*
X28000000Y56750000D02*
X42000000Y56750000D01*
X26000000Y46000000D02*
X26000000Y54750000D01*
X46000000Y61000000D02*
X62000000Y61000000D01*
X64000000Y59000000D02*
X64000000Y58750000D01*
X44000000Y58750000D02*
X44000000Y59000000D01*
X66000000Y56750000D02*
X80000000Y56750000D01*
X82000000Y54750000D02*
X82000000Y54500000D01*
X84000000Y52500000D02*
X98000000Y52500000D01*
X100000000Y40000000D02*
X100000000Y50500000D01*
X68385056Y-19958892D02*
X84195241Y-22746654D01*
X66762737Y-17641980D02*
X67694569Y-12357296D01*
X84629407Y-22875260D02*
X101014748Y-29830424D01*
X125824430Y-23070993D02*
X127521620Y-24304075D01*
X118559520Y-40041951D02*
X127964084Y-27097679D01*
X101408856Y-30053400D02*
X115765915Y-40484414D01*
X125000000Y-21452959D02*
X125000000Y36000000D01*
X123000000Y38000000D02*
X102000000Y38000000D01*
X18000000Y-10010000D02*
X65724954Y-10010000D01*
X18000000Y-10000000D02*
X18000000Y-10010000D01*
X8000000Y-8000000D02*
G75*
G03*
X10000000Y-10000000I2000000J0D01*
G01*
X10000000Y44000000D02*
G75*
G03*
X8000000Y42000000I0J-2000000D01*
G01*
X24000000Y44000000D02*
G75*
G03*
X26000000Y46000000I0J2000000D01*
G01*
X28000000Y56750000D02*
G75*
G03*
X26000000Y54750000I0J-2000000D01*
G01*
X42000000Y56750000D02*
G75*
G03*
X44000000Y58750000I0J2000000D01*
G01*
X46000000Y61000000D02*
G75*
G03*
X44000000Y59000000I0J-2000000D01*
G01*
X64000000Y59000000D02*
G75*
G03*
X62000000Y61000000I-2000000J0D01*
G01*
X64000000Y58750000D02*
G75*
G03*
X66000000Y56750000I2000000J0D01*
G01*
X82000000Y54750000D02*
G75*
G03*
X80000000Y56750000I-2000000J0D01*
G01*
X82000000Y54500000D02*
G75*
G03*
X84000000Y52500000I2000000J0D01*
G01*
X100000000Y50500000D02*
G75*
G03*
X98000000Y52500000I-2000000J0D01*
G01*
X100000000Y40000000D02*
G75*
G03*
X102000000Y38000000I2000000J0D01*
G01*
X125000000Y36000000D02*
G75*
G03*
X123000000Y38000000I-2000000J0D01*
G01*
X125000000Y-21452959D02*
G75*
G03*
X125824430Y-23070993I2000000J0D01*
G01*
X127964084Y-27097679D02*
G75*
G03*
X127521620Y-24304075I-1618034J1175570D01*
G01*
X115765915Y-40484414D02*
G75*
G03*
X118559520Y-40041951I1175571J1618034D01*
G01*
X101408856Y-30053399D02*
G75*
G03*
X101014748Y-29830424I-1175571J-1618035D01*
G01*
X84629407Y-22875260D02*
G75*
G03*
X84195241Y-22746654I-781462J-1841010D01*
G01*
X66762737Y-17641980D02*
G75*
G03*
X68385056Y-19958893I1969616J-347297D01*
G01*
X67694569Y-12357296D02*
G75*
G03*
X65724954Y-10010001I-1969615J347296D01*
G01*
M02*
