%TF.GenerationSoftware,KiCad,Pcbnew,6.0.5*%
%TF.CreationDate,2022-05-30T20:25:03+02:00*%
%TF.ProjectId,main,6d61696e-2e6b-4696-9361-645f70636258,v1.0.0*%
%TF.SameCoordinates,Original*%
%TF.FileFunction,Soldermask,Bot*%
%TF.FilePolarity,Negative*%
%FSLAX46Y46*%
G04 Gerber Fmt 4.6, Leading zero omitted, Abs format (unit mm)*
G04 Created by KiCad (PCBNEW 6.0.5) date 2022-05-30 20:25:03*
%MOMM*%
%LPD*%
G01*
G04 APERTURE LIST*
G04 Aperture macros list*
%AMRoundRect*
0 Rectangle with rounded corners*
0 $1 Rounding radius*
0 $2 $3 $4 $5 $6 $7 $8 $9 X,Y pos of 4 corners*
0 Add a 4 corners polygon primitive as box body*
4,1,4,$2,$3,$4,$5,$6,$7,$8,$9,$2,$3,0*
0 Add four circle primitives for the rounded corners*
1,1,$1+$1,$2,$3*
1,1,$1+$1,$4,$5*
1,1,$1+$1,$6,$7*
1,1,$1+$1,$8,$9*
0 Add four rect primitives between the rounded corners*
20,1,$1+$1,$2,$3,$4,$5,0*
20,1,$1+$1,$4,$5,$6,$7,0*
20,1,$1+$1,$6,$7,$8,$9,0*
20,1,$1+$1,$8,$9,$2,$3,0*%
%AMFreePoly0*
4,1,16,0.635355,1.035355,0.650000,1.000000,0.650000,-0.250000,0.635355,-0.285355,0.600000,-0.300000,-0.600000,-0.300000,-0.635355,-0.285355,-0.650000,-0.250000,-0.650000,1.000000,-0.635355,1.035355,-0.600000,1.050000,-0.564645,1.035355,0.000000,0.470710,0.564645,1.035355,0.600000,1.050000,0.635355,1.035355,0.635355,1.035355,$1*%
%AMFreePoly1*
4,1,14,0.635355,0.435355,0.650000,0.400000,0.650000,0.200000,0.635355,0.164645,0.035355,-0.435355,0.000000,-0.450000,-0.035355,-0.435355,-0.635355,0.164645,-0.650000,0.200000,-0.650000,0.400000,-0.635355,0.435355,-0.600000,0.450000,0.600000,0.450000,0.635355,0.435355,0.635355,0.435355,$1*%
G04 Aperture macros list end*
%ADD10C,0.250000*%
%ADD11C,0.100000*%
%ADD12C,3.529000*%
%ADD13C,1.801800*%
%ADD14C,2.132000*%
%ADD15C,3.100000*%
%ADD16RoundRect,0.050000X-1.300000X-1.300000X1.300000X-1.300000X1.300000X1.300000X-1.300000X1.300000X0*%
%ADD17RoundRect,0.050000X-1.505993X-1.054507X1.054507X-1.505993X1.505993X1.054507X-1.054507X1.505993X0*%
%ADD18RoundRect,0.050000X-1.704607X-0.688706X0.688706X-1.704607X1.704607X0.688706X-0.688706X1.704607X0*%
%ADD19RoundRect,0.050000X-1.815843X-0.287601X0.287601X-1.815843X1.815843X0.287601X-0.287601X1.815843X0*%
%ADD20C,1.700000*%
%ADD21RoundRect,0.050000X-0.800000X0.800000X-0.800000X-0.800000X0.800000X-0.800000X0.800000X0.800000X0*%
%ADD22FreePoly0,90.000000*%
%ADD23FreePoly1,90.000000*%
%ADD24FreePoly1,270.000000*%
%ADD25FreePoly0,270.000000*%
%ADD26C,1.100000*%
%ADD27C,1.000000*%
%ADD28RoundRect,0.050000X-0.350000X-0.750000X0.350000X-0.750000X0.350000X0.750000X-0.350000X0.750000X0*%
%ADD29RoundRect,0.050000X-0.500000X-0.400000X0.500000X-0.400000X0.500000X0.400000X-0.500000X0.400000X0*%
%ADD30RoundRect,0.050000X-0.450000X-0.850000X0.450000X-0.850000X0.450000X0.850000X-0.450000X0.850000X0*%
G04 APERTURE END LIST*
D10*
%TO.C,MCU1*%
X111363000Y4530000D02*
G75*
G03*
X111363000Y4530000I-125000J0D01*
G01*
X112887000Y4530000D02*
G75*
G03*
X112887000Y4530000I-125000J0D01*
G01*
X111363000Y7070000D02*
G75*
G03*
X111363000Y7070000I-125000J0D01*
G01*
X112887000Y7070000D02*
G75*
G03*
X112887000Y7070000I-125000J0D01*
G01*
X111363000Y9610000D02*
G75*
G03*
X111363000Y9610000I-125000J0D01*
G01*
X112887000Y9610000D02*
G75*
G03*
X112887000Y9610000I-125000J0D01*
G01*
X111363000Y12150000D02*
G75*
G03*
X111363000Y12150000I-125000J0D01*
G01*
X112887000Y12150000D02*
G75*
G03*
X112887000Y12150000I-125000J0D01*
G01*
X111363000Y14690000D02*
G75*
G03*
X111363000Y14690000I-125000J0D01*
G01*
X112887000Y14690000D02*
G75*
G03*
X112887000Y14690000I-125000J0D01*
G01*
X111363000Y17230000D02*
G75*
G03*
X111363000Y17230000I-125000J0D01*
G01*
X112887000Y17230000D02*
G75*
G03*
X112887000Y17230000I-125000J0D01*
G01*
X111363000Y19770000D02*
G75*
G03*
X111363000Y19770000I-125000J0D01*
G01*
X112887000Y19770000D02*
G75*
G03*
X112887000Y19770000I-125000J0D01*
G01*
X111363000Y22310000D02*
G75*
G03*
X111363000Y22310000I-125000J0D01*
G01*
X112887000Y22310000D02*
G75*
G03*
X112887000Y22310000I-125000J0D01*
G01*
X111363000Y24850000D02*
G75*
G03*
X111363000Y24850000I-125000J0D01*
G01*
X112887000Y24850000D02*
G75*
G03*
X112887000Y24850000I-125000J0D01*
G01*
X111363000Y27390000D02*
G75*
G03*
X111363000Y27390000I-125000J0D01*
G01*
X112887000Y27390000D02*
G75*
G03*
X112887000Y27390000I-125000J0D01*
G01*
X112887000Y29930000D02*
G75*
G03*
X112887000Y29930000I-125000J0D01*
G01*
X111363000Y29930000D02*
G75*
G03*
X111363000Y29930000I-125000J0D01*
G01*
X111363000Y32470000D02*
G75*
G03*
X111363000Y32470000I-125000J0D01*
G01*
X112887000Y32470000D02*
G75*
G03*
X112887000Y32470000I-125000J0D01*
G01*
G36*
X118096000Y4022000D02*
G01*
X117080000Y4022000D01*
X117080000Y5038000D01*
X118096000Y5038000D01*
X118096000Y4022000D01*
G37*
D11*
X118096000Y4022000D02*
X117080000Y4022000D01*
X117080000Y5038000D01*
X118096000Y5038000D01*
X118096000Y4022000D01*
G36*
X118096000Y6562000D02*
G01*
X117080000Y6562000D01*
X117080000Y7578000D01*
X118096000Y7578000D01*
X118096000Y6562000D01*
G37*
X118096000Y6562000D02*
X117080000Y6562000D01*
X117080000Y7578000D01*
X118096000Y7578000D01*
X118096000Y6562000D01*
G36*
X118096000Y9102000D02*
G01*
X117080000Y9102000D01*
X117080000Y10118000D01*
X118096000Y10118000D01*
X118096000Y9102000D01*
G37*
X118096000Y9102000D02*
X117080000Y9102000D01*
X117080000Y10118000D01*
X118096000Y10118000D01*
X118096000Y9102000D01*
G36*
X118096000Y11642000D02*
G01*
X117080000Y11642000D01*
X117080000Y12658000D01*
X118096000Y12658000D01*
X118096000Y11642000D01*
G37*
X118096000Y11642000D02*
X117080000Y11642000D01*
X117080000Y12658000D01*
X118096000Y12658000D01*
X118096000Y11642000D01*
G36*
X118096000Y14182000D02*
G01*
X117080000Y14182000D01*
X117080000Y15198000D01*
X118096000Y15198000D01*
X118096000Y14182000D01*
G37*
X118096000Y14182000D02*
X117080000Y14182000D01*
X117080000Y15198000D01*
X118096000Y15198000D01*
X118096000Y14182000D01*
G36*
X118096000Y16722000D02*
G01*
X117080000Y16722000D01*
X117080000Y17738000D01*
X118096000Y17738000D01*
X118096000Y16722000D01*
G37*
X118096000Y16722000D02*
X117080000Y16722000D01*
X117080000Y17738000D01*
X118096000Y17738000D01*
X118096000Y16722000D01*
G36*
X118096000Y19262000D02*
G01*
X117080000Y19262000D01*
X117080000Y20278000D01*
X118096000Y20278000D01*
X118096000Y19262000D01*
G37*
X118096000Y19262000D02*
X117080000Y19262000D01*
X117080000Y20278000D01*
X118096000Y20278000D01*
X118096000Y19262000D01*
G36*
X118096000Y21802000D02*
G01*
X117080000Y21802000D01*
X117080000Y22818000D01*
X118096000Y22818000D01*
X118096000Y21802000D01*
G37*
X118096000Y21802000D02*
X117080000Y21802000D01*
X117080000Y22818000D01*
X118096000Y22818000D01*
X118096000Y21802000D01*
G36*
X118096000Y24342000D02*
G01*
X117080000Y24342000D01*
X117080000Y25358000D01*
X118096000Y25358000D01*
X118096000Y24342000D01*
G37*
X118096000Y24342000D02*
X117080000Y24342000D01*
X117080000Y25358000D01*
X118096000Y25358000D01*
X118096000Y24342000D01*
G36*
X118096000Y26882000D02*
G01*
X117080000Y26882000D01*
X117080000Y27898000D01*
X118096000Y27898000D01*
X118096000Y26882000D01*
G37*
X118096000Y26882000D02*
X117080000Y26882000D01*
X117080000Y27898000D01*
X118096000Y27898000D01*
X118096000Y26882000D01*
G36*
X118096000Y29422000D02*
G01*
X117080000Y29422000D01*
X117080000Y30438000D01*
X118096000Y30438000D01*
X118096000Y29422000D01*
G37*
X118096000Y29422000D02*
X117080000Y29422000D01*
X117080000Y30438000D01*
X118096000Y30438000D01*
X118096000Y29422000D01*
G36*
X118096000Y31962000D02*
G01*
X117080000Y31962000D01*
X117080000Y32978000D01*
X118096000Y32978000D01*
X118096000Y31962000D01*
G37*
X118096000Y31962000D02*
X117080000Y31962000D01*
X117080000Y32978000D01*
X118096000Y32978000D01*
X118096000Y31962000D01*
G36*
X106920000Y4022000D02*
G01*
X105904000Y4022000D01*
X105904000Y5038000D01*
X106920000Y5038000D01*
X106920000Y4022000D01*
G37*
X106920000Y4022000D02*
X105904000Y4022000D01*
X105904000Y5038000D01*
X106920000Y5038000D01*
X106920000Y4022000D01*
G36*
X106920000Y6562000D02*
G01*
X105904000Y6562000D01*
X105904000Y7578000D01*
X106920000Y7578000D01*
X106920000Y6562000D01*
G37*
X106920000Y6562000D02*
X105904000Y6562000D01*
X105904000Y7578000D01*
X106920000Y7578000D01*
X106920000Y6562000D01*
G36*
X106920000Y9102000D02*
G01*
X105904000Y9102000D01*
X105904000Y10118000D01*
X106920000Y10118000D01*
X106920000Y9102000D01*
G37*
X106920000Y9102000D02*
X105904000Y9102000D01*
X105904000Y10118000D01*
X106920000Y10118000D01*
X106920000Y9102000D01*
G36*
X106920000Y11642000D02*
G01*
X105904000Y11642000D01*
X105904000Y12658000D01*
X106920000Y12658000D01*
X106920000Y11642000D01*
G37*
X106920000Y11642000D02*
X105904000Y11642000D01*
X105904000Y12658000D01*
X106920000Y12658000D01*
X106920000Y11642000D01*
G36*
X106920000Y14182000D02*
G01*
X105904000Y14182000D01*
X105904000Y15198000D01*
X106920000Y15198000D01*
X106920000Y14182000D01*
G37*
X106920000Y14182000D02*
X105904000Y14182000D01*
X105904000Y15198000D01*
X106920000Y15198000D01*
X106920000Y14182000D01*
G36*
X106920000Y16722000D02*
G01*
X105904000Y16722000D01*
X105904000Y17738000D01*
X106920000Y17738000D01*
X106920000Y16722000D01*
G37*
X106920000Y16722000D02*
X105904000Y16722000D01*
X105904000Y17738000D01*
X106920000Y17738000D01*
X106920000Y16722000D01*
G36*
X106920000Y19262000D02*
G01*
X105904000Y19262000D01*
X105904000Y20278000D01*
X106920000Y20278000D01*
X106920000Y19262000D01*
G37*
X106920000Y19262000D02*
X105904000Y19262000D01*
X105904000Y20278000D01*
X106920000Y20278000D01*
X106920000Y19262000D01*
G36*
X106920000Y21802000D02*
G01*
X105904000Y21802000D01*
X105904000Y22818000D01*
X106920000Y22818000D01*
X106920000Y21802000D01*
G37*
X106920000Y21802000D02*
X105904000Y21802000D01*
X105904000Y22818000D01*
X106920000Y22818000D01*
X106920000Y21802000D01*
G36*
X106920000Y24342000D02*
G01*
X105904000Y24342000D01*
X105904000Y25358000D01*
X106920000Y25358000D01*
X106920000Y24342000D01*
G37*
X106920000Y24342000D02*
X105904000Y24342000D01*
X105904000Y25358000D01*
X106920000Y25358000D01*
X106920000Y24342000D01*
G36*
X106920000Y26882000D02*
G01*
X105904000Y26882000D01*
X105904000Y27898000D01*
X106920000Y27898000D01*
X106920000Y26882000D01*
G37*
X106920000Y26882000D02*
X105904000Y26882000D01*
X105904000Y27898000D01*
X106920000Y27898000D01*
X106920000Y26882000D01*
G36*
X106920000Y29422000D02*
G01*
X105904000Y29422000D01*
X105904000Y30438000D01*
X106920000Y30438000D01*
X106920000Y29422000D01*
G37*
X106920000Y29422000D02*
X105904000Y29422000D01*
X105904000Y30438000D01*
X106920000Y30438000D01*
X106920000Y29422000D01*
G36*
X106920000Y31962000D02*
G01*
X105904000Y31962000D01*
X105904000Y32978000D01*
X106920000Y32978000D01*
X106920000Y31962000D01*
G37*
X106920000Y31962000D02*
X105904000Y31962000D01*
X105904000Y32978000D01*
X106920000Y32978000D01*
X106920000Y31962000D01*
%TD*%
D12*
%TO.C,S1*%
X18000000Y0D03*
D13*
X12500000Y0D03*
X23500000Y0D03*
D14*
X13000000Y-3800000D03*
X18000000Y-5900000D03*
X23000000Y-3800000D03*
X18000000Y-5900000D03*
%TD*%
D12*
%TO.C,S2*%
X18000000Y0D03*
D13*
X23500000Y0D03*
X12500000Y0D03*
D15*
X23000000Y3750000D03*
X18000000Y5950000D03*
D16*
X14725000Y5950000D03*
X26275000Y3750000D03*
D15*
X13000000Y3750000D03*
X18000000Y5950000D03*
%TD*%
D12*
%TO.C,S3*%
X18000000Y17000000D03*
D13*
X12500000Y17000000D03*
X23500000Y17000000D03*
D14*
X13000000Y13200000D03*
X18000000Y11100000D03*
X23000000Y13200000D03*
X18000000Y11100000D03*
%TD*%
D12*
%TO.C,S4*%
X18000000Y17000000D03*
D13*
X23500000Y17000000D03*
X12500000Y17000000D03*
D15*
X23000000Y20750000D03*
X18000000Y22950000D03*
D16*
X14725000Y22950000D03*
X26275000Y20750000D03*
D15*
X13000000Y20750000D03*
X18000000Y22950000D03*
%TD*%
D12*
%TO.C,S5*%
X18000000Y34000000D03*
D13*
X12500000Y34000000D03*
X23500000Y34000000D03*
D14*
X13000000Y30200000D03*
X18000000Y28100000D03*
X23000000Y30200000D03*
X18000000Y28100000D03*
%TD*%
D12*
%TO.C,S6*%
X18000000Y34000000D03*
D13*
X23500000Y34000000D03*
X12500000Y34000000D03*
D15*
X23000000Y37750000D03*
X18000000Y39950000D03*
D16*
X14725000Y39950000D03*
X26275000Y37750000D03*
D15*
X13000000Y37750000D03*
X18000000Y39950000D03*
%TD*%
D12*
%TO.C,S7*%
X36000000Y12750000D03*
D13*
X30500000Y12750000D03*
X41500000Y12750000D03*
D14*
X31000000Y8950000D03*
X36000000Y6850000D03*
X41000000Y8950000D03*
X36000000Y6850000D03*
%TD*%
D12*
%TO.C,S8*%
X36000000Y12750000D03*
D13*
X41500000Y12750000D03*
X30500000Y12750000D03*
D15*
X41000000Y16500000D03*
X36000000Y18700000D03*
D16*
X32725000Y18700000D03*
X44275000Y16500000D03*
D15*
X31000000Y16500000D03*
X36000000Y18700000D03*
%TD*%
D12*
%TO.C,S9*%
X36000000Y29750000D03*
D13*
X30500000Y29750000D03*
X41500000Y29750000D03*
D14*
X31000000Y25950000D03*
X36000000Y23850000D03*
X41000000Y25950000D03*
X36000000Y23850000D03*
%TD*%
D12*
%TO.C,S10*%
X36000000Y29750000D03*
D13*
X41500000Y29750000D03*
X30500000Y29750000D03*
D15*
X41000000Y33500000D03*
X36000000Y35700000D03*
D16*
X32725000Y35700000D03*
X44275000Y33500000D03*
D15*
X31000000Y33500000D03*
X36000000Y35700000D03*
%TD*%
D12*
%TO.C,S11*%
X36000000Y46750000D03*
D13*
X30500000Y46750000D03*
X41500000Y46750000D03*
D14*
X31000000Y42950000D03*
X36000000Y40850000D03*
X41000000Y42950000D03*
X36000000Y40850000D03*
%TD*%
D12*
%TO.C,S12*%
X36000000Y46750000D03*
D13*
X41500000Y46750000D03*
X30500000Y46750000D03*
D15*
X41000000Y50500000D03*
X36000000Y52700000D03*
D16*
X32725000Y52700000D03*
X44275000Y50500000D03*
D15*
X31000000Y50500000D03*
X36000000Y52700000D03*
%TD*%
D12*
%TO.C,S13*%
X54000000Y17000000D03*
D13*
X48500000Y17000000D03*
X59500000Y17000000D03*
D14*
X49000000Y13200000D03*
X54000000Y11100000D03*
X59000000Y13200000D03*
X54000000Y11100000D03*
%TD*%
D12*
%TO.C,S14*%
X54000000Y17000000D03*
D13*
X59500000Y17000000D03*
X48500000Y17000000D03*
D15*
X59000000Y20750000D03*
X54000000Y22950000D03*
D16*
X50725000Y22950000D03*
X62275000Y20750000D03*
D15*
X49000000Y20750000D03*
X54000000Y22950000D03*
%TD*%
D12*
%TO.C,S15*%
X54000000Y34000000D03*
D13*
X48500000Y34000000D03*
X59500000Y34000000D03*
D14*
X49000000Y30200000D03*
X54000000Y28100000D03*
X59000000Y30200000D03*
X54000000Y28100000D03*
%TD*%
D12*
%TO.C,S16*%
X54000000Y34000000D03*
D13*
X59500000Y34000000D03*
X48500000Y34000000D03*
D15*
X59000000Y37750000D03*
X54000000Y39950000D03*
D16*
X50725000Y39950000D03*
X62275000Y37750000D03*
D15*
X49000000Y37750000D03*
X54000000Y39950000D03*
%TD*%
D12*
%TO.C,S17*%
X54000000Y51000000D03*
D13*
X48500000Y51000000D03*
X59500000Y51000000D03*
D14*
X49000000Y47200000D03*
X54000000Y45100000D03*
X59000000Y47200000D03*
X54000000Y45100000D03*
%TD*%
D12*
%TO.C,S18*%
X54000000Y51000000D03*
D13*
X59500000Y51000000D03*
X48500000Y51000000D03*
D15*
X59000000Y54750000D03*
X54000000Y56950000D03*
D16*
X50725000Y56950000D03*
X62275000Y54750000D03*
D15*
X49000000Y54750000D03*
X54000000Y56950000D03*
%TD*%
D12*
%TO.C,S19*%
X72000000Y12750000D03*
D13*
X66500000Y12750000D03*
X77500000Y12750000D03*
D14*
X67000000Y8950000D03*
X72000000Y6850000D03*
X77000000Y8950000D03*
X72000000Y6850000D03*
%TD*%
D12*
%TO.C,S20*%
X72000000Y12750000D03*
D13*
X77500000Y12750000D03*
X66500000Y12750000D03*
D15*
X77000000Y16500000D03*
X72000000Y18700000D03*
D16*
X68725000Y18700000D03*
X80275000Y16500000D03*
D15*
X67000000Y16500000D03*
X72000000Y18700000D03*
%TD*%
D12*
%TO.C,S21*%
X72000000Y29750000D03*
D13*
X66500000Y29750000D03*
X77500000Y29750000D03*
D14*
X67000000Y25950000D03*
X72000000Y23850000D03*
X77000000Y25950000D03*
X72000000Y23850000D03*
%TD*%
D12*
%TO.C,S22*%
X72000000Y29750000D03*
D13*
X77500000Y29750000D03*
X66500000Y29750000D03*
D15*
X77000000Y33500000D03*
X72000000Y35700000D03*
D16*
X68725000Y35700000D03*
X80275000Y33500000D03*
D15*
X67000000Y33500000D03*
X72000000Y35700000D03*
%TD*%
D14*
%TO.C,S23*%
X72000000Y40850000D03*
X77000000Y42950000D03*
X72000000Y40850000D03*
X67000000Y42950000D03*
D13*
X77500000Y46750000D03*
X66500000Y46750000D03*
D12*
X72000000Y46750000D03*
%TD*%
D15*
%TO.C,S24*%
X72000000Y52700000D03*
X67000000Y50500000D03*
D16*
X80275000Y50500000D03*
X68725000Y52700000D03*
D15*
X72000000Y52700000D03*
X77000000Y50500000D03*
D13*
X66500000Y46750000D03*
X77500000Y46750000D03*
D12*
X72000000Y46750000D03*
%TD*%
%TO.C,S25*%
X90000000Y8500000D03*
D13*
X84500000Y8500000D03*
X95500000Y8500000D03*
D14*
X85000000Y4700000D03*
X90000000Y2600000D03*
X95000000Y4700000D03*
X90000000Y2600000D03*
%TD*%
D12*
%TO.C,S26*%
X90000000Y8500000D03*
D13*
X95500000Y8500000D03*
X84500000Y8500000D03*
D15*
X95000000Y12250000D03*
X90000000Y14450000D03*
D16*
X86725000Y14450000D03*
X98275000Y12250000D03*
D15*
X85000000Y12250000D03*
X90000000Y14450000D03*
%TD*%
D12*
%TO.C,S27*%
X90000000Y25500000D03*
D13*
X84500000Y25500000D03*
X95500000Y25500000D03*
D14*
X85000000Y21700000D03*
X90000000Y19600000D03*
X95000000Y21700000D03*
X90000000Y19600000D03*
%TD*%
D12*
%TO.C,S28*%
X90000000Y25500000D03*
D13*
X95500000Y25500000D03*
X84500000Y25500000D03*
D15*
X95000000Y29250000D03*
X90000000Y31450000D03*
D16*
X86725000Y31450000D03*
X98275000Y29250000D03*
D15*
X85000000Y29250000D03*
X90000000Y31450000D03*
%TD*%
D12*
%TO.C,S29*%
X90000000Y42500000D03*
D13*
X84500000Y42500000D03*
X95500000Y42500000D03*
D14*
X85000000Y38700000D03*
X90000000Y36600000D03*
X95000000Y38700000D03*
X90000000Y36600000D03*
%TD*%
D12*
%TO.C,S30*%
X90000000Y42500000D03*
D13*
X95500000Y42500000D03*
X84500000Y42500000D03*
D15*
X95000000Y46250000D03*
X90000000Y48450000D03*
D16*
X86725000Y48450000D03*
X98275000Y46250000D03*
D15*
X85000000Y46250000D03*
X90000000Y48450000D03*
%TD*%
D12*
%TO.C,S31*%
X78000000Y-11500000D03*
D13*
X72583557Y-10544935D03*
X83416443Y-12455065D03*
D14*
X72416098Y-14374029D03*
X76975476Y-17310366D03*
X82264176Y-16110510D03*
X76975476Y-17310366D03*
%TD*%
D12*
%TO.C,S32*%
X78000000Y-11500000D03*
D13*
X83416443Y-12455065D03*
X72583557Y-10544935D03*
D15*
X83575219Y-8675212D03*
X79033207Y-5640394D03*
D17*
X75807961Y-5071696D03*
X86800465Y-9243910D03*
D15*
X73727142Y-6938730D03*
X79033207Y-5640394D03*
%TD*%
D12*
%TO.C,S33*%
X97508237Y-17478395D03*
D13*
X92445460Y-15329374D03*
X102571014Y-19627416D03*
D14*
X91420934Y-19022658D03*
X95202923Y-22909374D03*
X100625983Y-22929969D03*
X95202923Y-22909374D03*
%TD*%
D12*
%TO.C,S34*%
X97508237Y-17478395D03*
D13*
X102571014Y-19627416D03*
X92445460Y-15329374D03*
D15*
X103576003Y-15980157D03*
X99833087Y-12001391D03*
D18*
X96818434Y-10721747D03*
X106590656Y-17259802D03*
D15*
X94370954Y-12072846D03*
X99833087Y-12001391D03*
%TD*%
D12*
%TO.C,S35*%
X115171632Y-27691963D03*
D13*
X110722039Y-24459144D03*
X119621225Y-30924782D03*
D14*
X108892963Y-27827301D03*
X111703699Y-32465163D03*
X116983133Y-33705154D03*
X111703699Y-32465163D03*
%TD*%
D12*
%TO.C,S36*%
X115171632Y-27691963D03*
D13*
X119621225Y-30924782D03*
X110722039Y-24459144D03*
D15*
X121420912Y-27597076D03*
X118668954Y-22878312D03*
D19*
X116019424Y-20953315D03*
X124070442Y-29522072D03*
D15*
X113330742Y-21719223D03*
X118668954Y-22878312D03*
%TD*%
D20*
%TO.C,MCU1*%
X104380000Y32470000D03*
X104380000Y29930000D03*
X104380000Y27390000D03*
X104380000Y24850000D03*
X104380000Y22310000D03*
X104380000Y19770000D03*
X104380000Y17230000D03*
X104380000Y14690000D03*
X104380000Y12150000D03*
X104380000Y9610000D03*
X104380000Y7070000D03*
X104380000Y4530000D03*
X119620000Y4530000D03*
X119620000Y7070000D03*
X119620000Y9610000D03*
X119620000Y12150000D03*
X119620000Y14690000D03*
X119620000Y17230000D03*
X119620000Y19770000D03*
X119620000Y22310000D03*
X119620000Y24850000D03*
X119620000Y27390000D03*
X119620000Y29930000D03*
X119620000Y32470000D03*
D21*
X119620000Y32470000D03*
D22*
X107174000Y32470000D03*
D23*
X106158000Y32470000D03*
X106158000Y29930000D03*
D22*
X107174000Y29930000D03*
D23*
X106158000Y27390000D03*
D22*
X107174000Y27390000D03*
D23*
X106158000Y24850000D03*
D22*
X107174000Y24850000D03*
D23*
X106158000Y22310000D03*
D22*
X107174000Y22310000D03*
D23*
X106158000Y19770000D03*
D22*
X107174000Y19770000D03*
D23*
X106158000Y17230000D03*
D22*
X107174000Y17230000D03*
D23*
X106158000Y14690000D03*
D22*
X107174000Y14690000D03*
D23*
X106158000Y12150000D03*
D22*
X107174000Y12150000D03*
D23*
X106158000Y9610000D03*
D22*
X107174000Y9610000D03*
D23*
X106158000Y7070000D03*
D22*
X107174000Y7070000D03*
D23*
X106158000Y4530000D03*
D22*
X107174000Y4530000D03*
D24*
X117842000Y32470000D03*
D25*
X116826000Y32470000D03*
X116826000Y29930000D03*
D24*
X117842000Y29930000D03*
D25*
X116826000Y27390000D03*
D24*
X117842000Y27390000D03*
D25*
X116826000Y24850000D03*
D24*
X117842000Y24850000D03*
D25*
X116826000Y22310000D03*
D24*
X117842000Y22310000D03*
D25*
X116826000Y19770000D03*
D24*
X117842000Y19770000D03*
D25*
X116826000Y17230000D03*
D24*
X117842000Y17230000D03*
D25*
X116826000Y14690000D03*
D24*
X117842000Y14690000D03*
D25*
X116826000Y12150000D03*
D24*
X117842000Y12150000D03*
D25*
X116826000Y9610000D03*
D24*
X117842000Y9610000D03*
D25*
X116826000Y7070000D03*
D24*
X117842000Y7070000D03*
D25*
X116826000Y4530000D03*
D24*
X117842000Y4530000D03*
%TD*%
D26*
%TO.C,*%
X111250000Y-2500000D03*
X112750000Y-2500000D03*
%TD*%
D27*
%TO.C,*%
X121830000Y-8000000D03*
X121830000Y-5000000D03*
X121830000Y-8000000D03*
X121830000Y-5000000D03*
D28*
X120070000Y-4250000D03*
X120070000Y-7250000D03*
X120070000Y-8750000D03*
D29*
X122930000Y-2850000D03*
X122930000Y-10150000D03*
X120720000Y-10150000D03*
X120720000Y-2850000D03*
%TD*%
D30*
%TO.C,*%
X122929022Y-14000000D03*
X119529022Y-14000000D03*
%TD*%
M02*
