%TF.GenerationSoftware,KiCad,Pcbnew,6.0.5*%
%TF.CreationDate,2022-05-30T20:25:03+02:00*%
%TF.ProjectId,main,6d61696e-2e6b-4696-9361-645f70636258,v1.0.0*%
%TF.SameCoordinates,Original*%
%TF.FileFunction,Paste,Bot*%
%TF.FilePolarity,Positive*%
%FSLAX46Y46*%
G04 Gerber Fmt 4.6, Leading zero omitted, Abs format (unit mm)*
G04 Created by KiCad (PCBNEW 6.0.5) date 2022-05-30 20:25:03*
%MOMM*%
%LPD*%
G01*
G04 APERTURE LIST*
G04 Aperture macros list*
%AMRotRect*
0 Rectangle, with rotation*
0 The origin of the aperture is its center*
0 $1 length*
0 $2 width*
0 $3 Rotation angle, in degrees counterclockwise*
0 Add horizontal line*
21,1,$1,$2,0,0,$3*%
G04 Aperture macros list end*
%ADD10R,2.600000X2.600000*%
%ADD11RotRect,2.600000X2.600000X350.000000*%
%ADD12RotRect,2.600000X2.600000X337.000000*%
%ADD13RotRect,2.600000X2.600000X324.000000*%
%ADD14R,0.700000X1.500000*%
%ADD15R,1.000000X0.800000*%
%ADD16R,0.900000X1.700000*%
G04 APERTURE END LIST*
D10*
%TO.C,S2*%
X14725000Y5950000D03*
X26275000Y3750000D03*
%TD*%
%TO.C,S4*%
X14725000Y22950000D03*
X26275000Y20750000D03*
%TD*%
%TO.C,S6*%
X14725000Y39950000D03*
X26275000Y37750000D03*
%TD*%
%TO.C,S8*%
X32725000Y18700000D03*
X44275000Y16500000D03*
%TD*%
%TO.C,S10*%
X32725000Y35700000D03*
X44275000Y33500000D03*
%TD*%
%TO.C,S12*%
X32725000Y52700000D03*
X44275000Y50500000D03*
%TD*%
%TO.C,S14*%
X50725000Y22950000D03*
X62275000Y20750000D03*
%TD*%
%TO.C,S16*%
X50725000Y39950000D03*
X62275000Y37750000D03*
%TD*%
%TO.C,S18*%
X50725000Y56950000D03*
X62275000Y54750000D03*
%TD*%
%TO.C,S20*%
X68725000Y18700000D03*
X80275000Y16500000D03*
%TD*%
%TO.C,S22*%
X68725000Y35700000D03*
X80275000Y33500000D03*
%TD*%
%TO.C,S24*%
X80275000Y50500000D03*
X68725000Y52700000D03*
%TD*%
%TO.C,S26*%
X86725000Y14450000D03*
X98275000Y12250000D03*
%TD*%
%TO.C,S28*%
X86725000Y31450000D03*
X98275000Y29250000D03*
%TD*%
%TO.C,S30*%
X86725000Y48450000D03*
X98275000Y46250000D03*
%TD*%
D11*
%TO.C,S32*%
X75807961Y-5071696D03*
X86800465Y-9243910D03*
%TD*%
D12*
%TO.C,S34*%
X96818434Y-10721747D03*
X106590656Y-17259802D03*
%TD*%
D13*
%TO.C,S36*%
X116019424Y-20953315D03*
X124070442Y-29522072D03*
%TD*%
D14*
%TO.C,*%
X120070000Y-4250000D03*
X120070000Y-7250000D03*
X120070000Y-8750000D03*
D15*
X122930000Y-2850000D03*
X122930000Y-10150000D03*
X120720000Y-10150000D03*
X120720000Y-2850000D03*
%TD*%
D16*
%TO.C,*%
X122929022Y-14000000D03*
X119529022Y-14000000D03*
%TD*%
M02*
