M48
; DRILL file {KiCad 6.0.5} date Sun 05 Jun 2022 10:04:48 PM CEST
; FORMAT={-:-/ absolute / inch / decimal}
; #@! TF.CreationDate,2022-06-05T22:04:48+02:00
; #@! TF.GenerationSoftware,Kicad,Pcbnew,6.0.5
; #@! TF.FileFunction,Plated,1,2,PTH
FMAT,2
INCH
; #@! TA.AperFunction,Plated,PTH,ComponentDrill
T1C0.0118
; #@! TA.AperFunction,Plated,PTH,ComponentDrill
T2C0.0157
; #@! TA.AperFunction,Plated,PTH,ComponentDrill
T3C0.0276
; #@! TA.AperFunction,Plated,PTH,ComponentDrill
T4C0.0433
; #@! TA.AperFunction,Plated,PTH,ComponentDrill
T5C0.0500
%
G90
G05
T1
X4.6949Y-0.2559
X4.6949Y-0.2854
X4.7744Y-0.4626
X4.7767Y-0.6398
T2
X4.3794Y1.2783
X4.3794Y1.1783
X4.3794Y1.0783
X4.3794Y0.9783
X4.3794Y0.8783
X4.3794Y0.7783
X4.3794Y0.6783
X4.3794Y0.5783
X4.3794Y0.4783
X4.3794Y0.3783
X4.3794Y0.2783
X4.3794Y0.1783
X4.4394Y1.2783
X4.4394Y1.1783
X4.4394Y1.0783
X4.4394Y0.9783
X4.4394Y0.8783
X4.4394Y0.7783
X4.4394Y0.6783
X4.4394Y0.5783
X4.4394Y0.4783
X4.4394Y0.3783
X4.4394Y0.2783
X4.4394Y0.1783
T3
X4.3799Y-0.0984
X4.439Y-0.0984
T4
X4.1094Y1.2783
X4.1094Y1.2783
X4.1094Y1.1783
X4.1094Y1.0783
X4.1094Y0.9783
X4.1094Y0.8783
X4.1094Y0.7783
X4.1094Y0.6783
X4.1094Y0.5783
X4.1094Y0.4783
X4.1094Y0.3783
X4.1094Y0.2783
X4.1094Y0.1783
X4.7094Y1.2783
X4.7094Y1.2783
X4.7094Y1.1783
X4.7094Y1.0783
X4.7094Y0.9783
X4.7094Y0.8783
X4.7094Y0.7783
X4.7094Y0.6783
X4.7094Y0.5783
X4.7094Y0.4783
X4.7094Y0.3783
X4.7094Y0.2783
X4.7094Y0.1783
T5
X0.5118Y1.189
X0.5118Y0.5197
X0.5118Y-0.1496
X0.7087Y1.1063
X0.7087Y1.1063
X0.7087Y0.437
X0.7087Y0.437
X0.7087Y-0.2323
X0.7087Y-0.2323
X0.9055Y1.189
X0.9055Y0.5197
X0.9055Y-0.1496
X1.2205Y1.6909
X1.2205Y1.0217
X1.2205Y0.3524
X1.4173Y1.6083
X1.4173Y1.6083
X1.4173Y0.939
X1.4173Y0.939
X1.4173Y0.2697
X1.4173Y0.2697
X1.6142Y1.6909
X1.6142Y1.0217
X1.6142Y0.3524
X1.9291Y1.8583
X1.9291Y1.189
X1.9291Y0.5197
X2.126Y1.7756
X2.126Y1.7756
X2.126Y1.1063
X2.126Y1.1063
X2.126Y0.437
X2.126Y0.437
X2.3228Y1.8583
X2.3228Y1.189
X2.3228Y0.5197
X2.6378Y1.6909
X2.6378Y1.0217
X2.6378Y0.3524
X2.8346Y1.6083
X2.8346Y1.6083
X2.8346Y0.939
X2.8346Y0.939
X2.8346Y0.2697
X2.8346Y0.2697
X2.851Y-0.5659
X3.0305Y-0.6815
X3.0305Y-0.6815
X3.0315Y1.6909
X3.0315Y1.0217
X3.0315Y0.3524
X3.2387Y-0.6343
X3.3465Y1.5236
X3.3465Y0.8543
X3.3465Y0.185
X3.5433Y1.4409
X3.5433Y1.4409
X3.5433Y0.7717
X3.5433Y0.7717
X3.5433Y0.1024
X3.5433Y0.1024
X3.5992Y-0.7489
X3.7402Y1.5236
X3.7402Y0.8543
X3.7402Y0.185
X3.7481Y-0.9019
X3.7481Y-0.9019
X3.9617Y-0.9028
X4.2871Y-1.0956
X4.3978Y-1.2782
X4.3978Y-1.2782
X4.6056Y-1.327
T0
M30
