M48
; DRILL file {KiCad 6.0.5} date Sun 05 Jun 2022 10:04:48 PM CEST
; FORMAT={-:-/ absolute / inch / decimal}
; #@! TF.CreationDate,2022-06-05T22:04:48+02:00
; #@! TF.GenerationSoftware,Kicad,Pcbnew,6.0.5
; #@! TF.FileFunction,NonPlated,1,2,NPTH
FMAT,2
INCH
; #@! TA.AperFunction,NonPlated,NPTH,ComponentDrill
T1C0.0354
; #@! TA.AperFunction,NonPlated,NPTH,ComponentDrill
T2C0.0670
; #@! TA.AperFunction,NonPlated,NPTH,ComponentDrill
T3C0.1181
; #@! TA.AperFunction,NonPlated,NPTH,ComponentDrill
T4C0.1350
%
G90
G05
T1
X4.7965Y-0.1969
X4.7965Y-0.1969
X4.7965Y-0.315
X4.7965Y-0.315
T2
X0.4921Y1.3386
X0.4921Y1.3386
X0.4921Y0.6693
X0.4921Y0.6693
X0.4921Y0.0
X0.4921Y0.0
X0.9252Y1.3386
X0.9252Y1.3386
X0.9252Y0.6693
X0.9252Y0.6693
X0.9252Y0.0
X0.9252Y0.0
X1.2008Y1.8406
X1.2008Y1.8406
X1.2008Y1.1713
X1.2008Y1.1713
X1.2008Y0.502
X1.2008Y0.502
X1.6339Y1.8406
X1.6339Y1.8406
X1.6339Y1.1713
X1.6339Y1.1713
X1.6339Y0.502
X1.6339Y0.502
X1.9094Y2.0079
X1.9094Y2.0079
X1.9094Y1.3386
X1.9094Y1.3386
X1.9094Y0.6693
X1.9094Y0.6693
X2.3425Y2.0079
X2.3425Y2.0079
X2.3425Y1.3386
X2.3425Y1.3386
X2.3425Y0.6693
X2.3425Y0.6693
X2.6181Y1.8406
X2.6181Y1.8406
X2.6181Y1.1713
X2.6181Y1.1713
X2.6181Y0.502
X2.6181Y0.502
X2.8576Y-0.4152
X2.8576Y-0.4152
X3.0512Y1.8406
X3.0512Y1.8406
X3.0512Y1.1713
X3.0512Y1.1713
X3.0512Y0.502
X3.0512Y0.502
X3.2841Y-0.4904
X3.2841Y-0.4904
X3.3268Y1.6732
X3.3268Y1.6732
X3.3268Y1.0039
X3.3268Y1.0039
X3.3268Y0.3346
X3.3268Y0.3346
X3.6396Y-0.6035
X3.6396Y-0.6035
X3.7598Y1.6732
X3.7598Y1.6732
X3.7598Y1.0039
X3.7598Y1.0039
X3.7598Y0.3346
X3.7598Y0.3346
X4.0382Y-0.7727
X4.0382Y-0.7727
X4.3591Y-0.963
X4.3591Y-0.963
X4.7095Y-1.2175
X4.7095Y-1.2175
T3
X0.5118Y1.4862
X0.5118Y0.8169
X0.5118Y0.1476
X0.7087Y1.5728
X0.7087Y1.5728
X0.7087Y0.9035
X0.7087Y0.9035
X0.7087Y0.2343
X0.7087Y0.2343
X0.9055Y1.4862
X0.9055Y0.8169
X0.9055Y0.1476
X1.2205Y1.9882
X1.2205Y1.3189
X1.2205Y0.6496
X1.4173Y2.0748
X1.4173Y2.0748
X1.4173Y1.4055
X1.4173Y1.4055
X1.4173Y0.7362
X1.4173Y0.7362
X1.6142Y1.9882
X1.6142Y1.3189
X1.6142Y0.6496
X1.9291Y2.1555
X1.9291Y1.4862
X1.9291Y0.8169
X2.126Y2.2421
X2.126Y2.2421
X2.126Y1.5728
X2.126Y1.5728
X2.126Y0.9035
X2.126Y0.9035
X2.3228Y2.1555
X2.3228Y1.4862
X2.3228Y0.8169
X2.6378Y1.9882
X2.6378Y1.3189
X2.6378Y0.6496
X2.8346Y2.0748
X2.8346Y2.0748
X2.8346Y1.4055
X2.8346Y1.4055
X2.8346Y0.7362
X2.8346Y0.7362
X2.9026Y-0.2732
X3.0315Y1.9882
X3.0315Y1.3189
X3.0315Y0.6496
X3.1115Y-0.2221
X3.1115Y-0.2221
X3.2904Y-0.3415
X3.3465Y1.8209
X3.3465Y1.1516
X3.3465Y0.4823
X3.5433Y1.9075
X3.5433Y1.9075
X3.5433Y1.2382
X3.5433Y1.2382
X3.5433Y0.5689
X3.5433Y0.5689
X3.7154Y-0.4753
X3.7402Y1.8209
X3.7402Y1.1516
X3.7402Y0.4823
X3.9304Y-0.4725
X3.9304Y-0.4725
X4.0778Y-0.6291
X4.4618Y-0.8551
X4.672Y-0.9007
X4.672Y-0.9007
X4.7804Y-1.0865
T4
X0.7087Y1.3386
X0.7087Y1.3386
X0.7087Y0.6693
X0.7087Y0.6693
X0.7087Y0.0
X0.7087Y0.0
X1.4173Y1.8406
X1.4173Y1.8406
X1.4173Y1.1713
X1.4173Y1.1713
X1.4173Y0.502
X1.4173Y0.502
X2.126Y2.0079
X2.126Y2.0079
X2.126Y1.3386
X2.126Y1.3386
X2.126Y0.6693
X2.126Y0.6693
X2.8346Y1.8406
X2.8346Y1.8406
X2.8346Y1.1713
X2.8346Y1.1713
X2.8346Y0.502
X2.8346Y0.502
X3.0709Y-0.4528
X3.0709Y-0.4528
X3.5433Y1.6732
X3.5433Y1.6732
X3.5433Y1.0039
X3.5433Y1.0039
X3.5433Y0.3346
X3.5433Y0.3346
X3.8389Y-0.6881
X3.8389Y-0.6881
X4.5343Y-1.0902
X4.5343Y-1.0902
T0
M30
